HIERARCHY
ROOT ui
{
	 OFFSET 0 0 0
	 CHANNELS 3 XPosition YPosition Z Position
	 EndSite
	 {
	 OFFSET 0 -1 0
	 }
}
ROOT li
{
	 OFFSET 0 0 0
	 CHANNELS 3 XPosition YPosition Z Position
	 EndSite
	 {
	 OFFSET 0 -1 0
	 }
}
ROOT ul
{
	 OFFSET 0 0 0
	 CHANNELS 3 XPosition YPosition Z Position
	 EndSite
	 {
	 OFFSET 0 -1 0
	 }
}
ROOT ll
{
	 OFFSET 0 0 0
	 CHANNELS 3 XPosition YPosition Z Position
	 EndSite
	 {
	 OFFSET 0 -1 0
	 }
}
ROOT tt
{
	 OFFSET 0 0 0
	 CHANNELS 3 XPosition YPosition Z Position
	 EndSite
	 {
	 OFFSET 0 -1 0
	 }
}
ROOT tb
{
	 OFFSET 0 0 0
	 CHANNELS 3 XPosition YPosition Z Position
	 EndSite
	 {
	 OFFSET 0 -1 0
	 }
}
ROOT td
{
	 OFFSET 0 0 0
	 CHANNELS 3 XPosition YPosition Z Position
	 EndSite
	 {
	 OFFSET 0 -1 0
	 }
}
ROOT v
{
	 OFFSET 0 0 0
	 CHANNELS 3 XPosition YPosition Z Position
	 EndSite
	 {
	 OFFSET 0 -1 0
	 }
}
ROOT bn
{
	 OFFSET 0 0 0
	 CHANNELS 3 XPosition YPosition Z Position
	 EndSite
	 {
	 OFFSET 0 -1 0
	 }
}
MOTION
Frames: 32
Frame Time: 0.002
-1.5814000740647315E-5	2.3965999484062194E-4	0		0.4850697021484375	-2.367957275390625	0		-1.0860767822265625	0.17198532104492187	0		-0.7440116577148438	-2.636687744140625	0		1.4341085205078126	-0.66690673828125	0		3.09356640625	-0.10594158935546875	0		4.4966201171875	0.10462077331542968	0		5.6150771484375	0.14538027954101562	0		-0.1822548522949219	5.93752685546875	0		
0.009652159690856933	0.00975743579864502	0		0.4897609252929688	-2.361332763671875	0		-1.073396728515625	0.18241334533691406	0		-0.7372939453125	-2.629139404296875	0		1.4397625732421875	-0.6592695922851562	0		3.11329052734375	-0.09350521850585937	0		4.5074296875	0.12226493072509766	0		5.61471630859375	0.14517250061035156	0		-0.1819954071044922	5.93520361328125	0		
0.028022445678710938	0.002120901107788086	0		0.4597615966796875	-2.33807177734375	0		-1.0930079345703125	0.1764276123046875	0		-0.7417769165039062	-2.633385498046875	0		1.4303408203125	-0.6563532104492188	0		3.099741943359375	-0.09645922088623046	0		4.4979453125	0.12328478240966798	0		5.61436474609375	0.1449847869873047	0		-0.18463999938964842	5.93793896484375	0		
0.00562176513671875	0.0062322688102722165	0		0.45527603149414064	-2.34326904296875	0		-1.103470703125	0.17728424072265625	0		-0.7102942504882812	-2.641273681640625	0		1.4268153076171874	-0.6605353393554687	0		3.068291748046875	-0.09507917022705079	0		4.50435546875	0.11702801513671875	0		5.61108642578125	0.13283566284179688	0		-0.19951705932617186	5.92690087890625	0		
0.024046489715576172	-0.0013847939968109132	0		0.4549117431640625	-2.343529052734375	0		-1.0980137939453125	0.17186251831054689	0		-0.7455884399414062	-2.6379443359375	0		1.4322652587890625	-0.66786865234375	0		3.098826171875	-0.09680686950683594	0		4.4929072265625	0.11710694885253906	0		5.6137158203125	0.14467390441894531	0		-0.20016912841796874	5.9266181640625	0		
-0.0023610949516296386	-0.0011810660362243652	0		0.4566351013183594	-2.340814453125	0		-1.0884512939453126	0.17037989807128906	0		-0.7438728637695312	-2.636271240234375	0		1.431876708984375	-0.6680835571289062	0		3.098417724609375	-0.09696372985839843	0		4.4965986328125	0.12292570495605469	0		5.6134267578125	0.14454867553710937	0		-0.18659169006347656	5.9370927734375	0		
0.0013327640295028686	0.0024939210414886477	0		0.4604095764160156	-2.337123779296875	0		-1.0947437744140625	0.17519679260253906	0		-0.7410880126953125	-2.632603759765625	0		1.431773681640625	-0.6542889404296875	0		3.093170166015625	-0.09002081298828125	0		4.50032421875	0.12875541687011718	0		5.613162109375	0.1444412841796875	0		-0.1871736297607422	5.936833984375	0		
0.004042087078094482	0.005200265884399414	0		0.4581090393066406	-2.3393115234375	0		-1.08918408203125	0.16981369018554687	0		-0.7433785400390625	-2.634832275390625	0		1.428398681640625	-0.6574258422851562	0		3.097703125	-0.097244384765625	0		4.5068671875	0.12254331970214843	0		5.61292138671875	0.14434947204589843	0		-0.18673585510253907	5.9355703125	0		
-0.0033941121101379395	-0.0018993910551071166	0		0.45378448486328127	-2.3444501953125	0		-1.0954111328125	0.17465863037109375	0		-0.74667578125	-2.6390283203125	0		1.4250369873046875	-0.6615511474609375	0		3.101483154296875	-0.09244194030761718	0		4.49555322265625	0.12266072082519532	0		5.612703125	0.14426956176757813	0		-0.20241755676269532	5.92560791015625	0		
-0.0036758439540863037	-0.002112344980239868	0		0.45357513427734375	-2.344649169921875	0		-1.105678955078125	0.17559031677246092	0		-0.7468760375976562	-2.63926416015625	0		1.418901611328125	-0.654614013671875	0		3.07626171875	-0.08911312866210938	0		4.5021591796875	0.11646272277832032	0		5.609564453125	0.13221202087402345	0		-0.18967022705078124	5.93715478515625	0		
-0.003928797960281372	-0.002312191963195801	0		0.42948223876953123	-2.339408935546875	0		-1.0900465087890625	0.16907464599609376	0		-0.7470534057617187	-2.6394853515625	0		1.4304158935546876	-0.6689847412109375	0		3.061013671875	-0.08895732116699219	0		4.4991171875	0.128443603515625	0		5.612330078125	0.14412490844726564	0		-0.18812939453125	5.93491455078125	0		
0.002969804048538208	0.004375545978546142	0		0.45934857177734373	-2.338118408203125	0		-1.0862052001953124	0.1727882080078125	0		-0.7400689086914063	-2.63181689453125	0		1.439402587890625	-0.6582962036132812	0		3.10483740234375	-0.08684837341308593	0		4.49888916015625	0.12837330627441407	0		5.6121728515625	0.144049072265625	0		-0.18754331970214844	5.93270556640625	0		
0.002772564888000488	0.004202642917633057	0		0.4592034606933594	-2.33828125	0		-1.1022969970703125	0.17887454223632812	0		-0.7442779541015625	-2.6359345703125	0		1.4272220458984375	-0.6582238159179687	0		3.08377001953125	-0.07958003997802734	0		4.49383203125	0.13638807678222656	0		5.61203515625	0.14396247863769532	0		-0.20401217651367187	5.92481396484375	0		
-0.004520415782928467	-0.0028316121101379394	0		0.4799126281738281	-2.34780419921875	0		-1.0947198486328125	0.16455516052246094	0		-0.7474708251953125	-2.6400537109375	0		1.4239935302734374	-0.662303955078125	0		3.060427734375	-0.08927430725097656	0		4.4895537109375	0.130381103515625	0		5.60897509765625	0.13187271118164062	0		-0.3376580810546875	5.90501611328125	0		
-0.004663019180297851	-0.0029787900447845457	0		0.4528409729003906	-2.345466064453125	0		-1.10077490234375	0.16949916076660157	0		-0.7126370849609375	-2.64383154296875	0		1.41798486328125	-0.6553267822265625	0		3.060286376953125	-0.0893807144165039	0		4.48940966796875	0.13029371643066406	0		5.60472314453125	0.1492266845703125	0		-0.20450982666015624	5.9245009765625	0		
-0.004778387069702149	-0.00311382794380188	0		0.4527462158203125	-2.34559716796875	0		-1.0909111328125	0.16817726135253908	0		-0.7707378540039063	-2.64394384765625	0		1.404841796875	-0.6572183837890625	0		3.07516943359375	-0.08975483703613281	0		4.48929296875	0.13019821166992188	0		5.60460400390625	0.14388786315917967	0		-0.20467733764648438	5.9243642578125	0		
0.00225763201713562	0.003638097047805786	0		0.4328509521484375	-2.33536474609375	0		-1.0909990234375	0.16804917907714845	0		-0.7426392211914062	-2.634568359375	0		1.42978955078125	-0.655778076171875	0		3.05831591796875	-0.07656345367431641	0		4.49331103515625	0.136025146484375	0		5.611673828125	0.14341456604003905	0		-0.18961795043945312	5.93397265625	0		
0.02412603187561035	-8.61640989780426E-4	0		0.45670465087890627	-2.340899169921875	0		-1.102877197265625	0.1781485137939453	0		-0.7447278442382812	-2.63664404296875	0		1.420787841796875	-0.6527272338867187	0		3.098199462890625	-0.08037813568115235	0		4.49325390625	0.13592124938964845	0		5.60748095703125	0.16071868896484376	0		-0.2048585662841797	5.9241298828125	0		
0.002173038959503174	0.003430269956588745	0		0.4525858764648438	-2.345925537109375	0		-1.102904296875	0.17805258178710937	0		-0.7108529663085937	-2.642342529296875	0		1.4108143310546875	-0.6496499633789062	0		3.098171875	-0.0804801025390625	0		4.4932265625	0.13581727600097657	0		5.61161328125	0.143054931640625	0		-0.20487744140625	5.9240322265625	0		
-0.004949889183044434	-0.003529228925704956	0		0.45257708740234376	-2.34601220703125	0		-1.106973876953125	0.17404359436035155	0		-0.74783935546875	-2.6407685546875	0		1.4108118896484374	-0.6497400512695313	0		3.070122802734375	-0.08307955169677735	0		4.48836962890625	0.14380288696289062	0		5.61161328125	0.14287203979492188	0		-0.20485482788085937	5.9239482421875	0		
-0.004926037788391113	-0.0036012089252471925	0		0.4811395263671875	-2.37159716796875	0		-1.0910579833984375	0.16769496154785157	0		-0.7457953491210938	-2.6388720703125	0		1.4235994873046875	-0.6630486450195312	0		3.058254638671875	-0.07695703887939453	0		4.493251953125	0.13561795043945313	0		5.61162939453125	0.14269322204589843	0		-0.1896222686767578	5.93360986328125	0		
0.005293935775756836	0.006160704135894776	0		0.4862901916503906	-2.36474951171875	0		-1.077819580078125	0.17841119384765625	0		-0.8007081298828125	-2.6349501953125	0		1.4108538818359375	-0.6508890380859375	0		3.1064326171875	-0.06989105224609375	0		4.486404296875	0.14165019226074219	0		5.6146005859375	0.15450831604003906	0		-0.18857159423828124	5.93153466796875	0		
0.0023023340702056885	0.003168560981750488	0		0.45674505615234373	-2.341270263671875	0		-1.0909501953125	0.16760678100585938	0		-0.7426599731445312	-2.63501953125	0		1.4170684814453125	-0.6420543823242187	0		3.077444580078125	-0.07244699096679688	0		4.488501953125	0.14353167724609375	0		5.61170263671875	0.14236526489257811	0		-0.2046012725830078	5.92377587890625	0		
0.0023770949840545654	0.0031356570720672606	0		0.45271038818359377	-2.346235595703125	0		-1.0967841796875	0.1726895751953125	0		-0.7446443481445313	-2.637009765625	0		1.4109962158203124	-0.6499922485351562	0		3.06152099609375	-0.07222348785400391	0		4.488578125	0.14345816040039064	0		5.6076025390625	0.1597035369873047	0		-0.20447291564941406	5.92374462890625	0		
-0.004661887168884277	-0.003759788990020752	0		0.479732177734375	-2.348740478515625	0		-1.1007686767578124	0.1687509765625	0		-0.7476561889648438	-2.640969482421875	0		1.41107421875	-0.65002685546875	0		3.061604736328125	-0.07227407836914063	0		4.4845576171875	0.13746580505371095	0		5.6088720703125	0.13010804748535157	0		-0.2043312530517578	5.92372607421875	0		
-0.004572135925292969	-0.0037700939178466797	0		0.4268955688476562	-2.342813720703125	0		-1.090696533203125	0.16757403564453124	0		-0.7445223999023437	-2.6370263671875	0		1.411157470703125	-0.6500514526367187	0		3.06169384765625	-0.07231533050537109	0		4.48186279296875	0.14946163940429688	0		5.60474462890625	0.14228646850585938	0		-0.2041816864013672	5.9237177734375	0		
0.002642954111099243	0.003103494882583618	0		0.45699395751953126	-2.341353271484375	0		-1.0906031494140624	0.16758447265625	0		-0.73158447265625	-2.644249755859375	0		1.396405029296875	-0.64080126953125	0		3.072907470703125	-0.06554447174072266	0		4.4929541015625	0.14921900939941407	0		5.6119404296875	0.141879150390625	0		-0.18983554077148437	5.9344677734375	0		
0.0027334110736846923	0.003111527919769287	0		0.4570603332519531	-2.341349853515625	0		-1.090510986328125	0.16760374450683593	0		-0.7423591918945313	-2.635039794921875	0		1.4174677734375	-0.6421813354492187	0		3.061874267578125	-0.07237102508544922	0		4.49304638671875	0.1491808776855469	0		5.6120029296875	0.14179486083984374	0		-0.20387776184082032	5.92372900390625	0		
-0.004304090976715088	-0.0037466421127319337	0		0.479994384765625	-2.3487470703125	0		-1.1022431640625	0.17784300231933595	0		-0.7443350830078125	-2.636980224609375	0		1.41140576171875	-0.6500714111328125	0		3.097043212890625	-0.0680102767944336	0		4.4931337890625	0.14915151977539062	0		5.6091220703125	0.12974127197265625	0		-0.20373184204101563	5.9237470703125	0		
-0.004225550174713134	-0.003723591089248657	0		0.4530899658203125	-2.346247802734375	0		-1.1062335205078124	0.17394871520996094	0		-0.7473530883789062	-2.640895751953125	0		1.4114779052734374	-0.6500621948242188	0		3.0571630859375	-0.0653048095703125	0		4.489107421875	0.14320289611816406	0		5.6050244140625	0.1471700897216797	0		-0.20457740783691405	5.9247900390625	0		
-0.004157104969024658	-0.003694166898727417	0		0.4816861877441406	-2.37173583984375	0		-1.09027294921875	0.16770394897460938	0		-0.7442382202148438	-2.63691357421875	0		1.399506591796875	-0.65183154296875	0		3.05237451171875	-0.057215858459472656	0		4.48228515625	0.14931455993652343	0		5.61216552734375	0.14163478088378906	0		-0.18829605102539063	5.9335341796875	0		
0.006076269149780274	0.006161671161651611	0		0.43335464477539065	-2.33583544921875	0		-1.077020751953125	0.17851545715332032	0		-0.7401336669921875	-2.632943359375	0		1.427677978515625	-0.6453085327148438	0		3.089442626953125	-0.05686670684814453	0		4.49130615234375	0.1471514892578125	0		5.61514599609375	0.15359901428222655	0		-0.1862421875	5.93053662109375	0		
